<mxfile host="app.diagrams.net" agent="Mozilla/5.0 (Windows NT 10.0; Win64; x64) AppleWebKit/537.36 (KHTML, like Gecko) Chrome/138.0.0.0 Safari/537.36" version="28.0.7">
  <diagram name="Page-1" id="TWwtTsUpTbTt9gq1PlrS">
    <mxGraphModel dx="866" dy="468" grid="1" gridSize="10" guides="1" tooltips="1" connect="1" arrows="1" fold="1" page="1" pageScale="1" pageWidth="850" pageHeight="1100" math="0" shadow="0">
      <root>
        <mxCell id="0" />
        <mxCell id="1" parent="0" />
        <mxCell id="2s6DsIRSyvXSMa6hS0V3-13" value="" style="edgeStyle=orthogonalEdgeStyle;rounded=0;orthogonalLoop=1;jettySize=auto;html=1;" edge="1" parent="1" source="2s6DsIRSyvXSMa6hS0V3-2" target="2s6DsIRSyvXSMa6hS0V3-3">
          <mxGeometry relative="1" as="geometry" />
        </mxCell>
        <mxCell id="2s6DsIRSyvXSMa6hS0V3-2" value="&lt;b&gt;&lt;font style=&quot;font-size: 16px;&quot;&gt;plan&lt;/font&gt;&lt;/b&gt;" style="ellipse;whiteSpace=wrap;html=1;" vertex="1" parent="1">
          <mxGeometry x="290" width="120" height="80" as="geometry" />
        </mxCell>
        <mxCell id="2s6DsIRSyvXSMa6hS0V3-14" value="" style="edgeStyle=orthogonalEdgeStyle;rounded=0;orthogonalLoop=1;jettySize=auto;html=1;" edge="1" parent="1" source="2s6DsIRSyvXSMa6hS0V3-3" target="2s6DsIRSyvXSMa6hS0V3-4">
          <mxGeometry relative="1" as="geometry" />
        </mxCell>
        <mxCell id="2s6DsIRSyvXSMa6hS0V3-3" value="&lt;b&gt;&lt;font style=&quot;font-size: 13px;&quot;&gt;Develop&lt;/font&gt;&lt;/b&gt;" style="ellipse;whiteSpace=wrap;html=1;" vertex="1" parent="1">
          <mxGeometry x="290" y="130" width="120" height="80" as="geometry" />
        </mxCell>
        <mxCell id="2s6DsIRSyvXSMa6hS0V3-15" value="" style="edgeStyle=orthogonalEdgeStyle;rounded=0;orthogonalLoop=1;jettySize=auto;html=1;" edge="1" parent="1" source="2s6DsIRSyvXSMa6hS0V3-4" target="2s6DsIRSyvXSMa6hS0V3-5">
          <mxGeometry relative="1" as="geometry" />
        </mxCell>
        <mxCell id="2s6DsIRSyvXSMa6hS0V3-4" value="&lt;b&gt;&lt;font style=&quot;font-size: 13px;&quot;&gt;Build&lt;/font&gt;&lt;/b&gt;" style="ellipse;whiteSpace=wrap;html=1;" vertex="1" parent="1">
          <mxGeometry x="290" y="240" width="120" height="80" as="geometry" />
        </mxCell>
        <mxCell id="2s6DsIRSyvXSMa6hS0V3-16" value="" style="edgeStyle=orthogonalEdgeStyle;rounded=0;orthogonalLoop=1;jettySize=auto;html=1;" edge="1" parent="1" source="2s6DsIRSyvXSMa6hS0V3-5" target="2s6DsIRSyvXSMa6hS0V3-6">
          <mxGeometry relative="1" as="geometry" />
        </mxCell>
        <mxCell id="2s6DsIRSyvXSMa6hS0V3-5" value="&lt;b&gt;&lt;font style=&quot;font-size: 14px;&quot;&gt;Test&lt;/font&gt;&lt;/b&gt;" style="ellipse;whiteSpace=wrap;html=1;" vertex="1" parent="1">
          <mxGeometry x="290" y="350" width="120" height="80" as="geometry" />
        </mxCell>
        <mxCell id="2s6DsIRSyvXSMa6hS0V3-17" value="" style="edgeStyle=orthogonalEdgeStyle;rounded=0;orthogonalLoop=1;jettySize=auto;html=1;" edge="1" parent="1" source="2s6DsIRSyvXSMa6hS0V3-6" target="2s6DsIRSyvXSMa6hS0V3-7">
          <mxGeometry relative="1" as="geometry" />
        </mxCell>
        <mxCell id="2s6DsIRSyvXSMa6hS0V3-6" value="&lt;b&gt;&lt;font style=&quot;font-size: 13px;&quot;&gt;Release&lt;/font&gt;&lt;/b&gt;" style="ellipse;whiteSpace=wrap;html=1;" vertex="1" parent="1">
          <mxGeometry x="290" y="470" width="120" height="80" as="geometry" />
        </mxCell>
        <mxCell id="2s6DsIRSyvXSMa6hS0V3-18" value="" style="edgeStyle=orthogonalEdgeStyle;rounded=0;orthogonalLoop=1;jettySize=auto;html=1;" edge="1" parent="1" source="2s6DsIRSyvXSMa6hS0V3-7" target="2s6DsIRSyvXSMa6hS0V3-8">
          <mxGeometry relative="1" as="geometry" />
        </mxCell>
        <mxCell id="2s6DsIRSyvXSMa6hS0V3-7" value="&lt;b&gt;&lt;font style=&quot;font-size: 13px;&quot;&gt;Deploy&lt;/font&gt;&lt;/b&gt;" style="ellipse;whiteSpace=wrap;html=1;" vertex="1" parent="1">
          <mxGeometry x="290" y="570" width="120" height="80" as="geometry" />
        </mxCell>
        <mxCell id="2s6DsIRSyvXSMa6hS0V3-19" value="" style="edgeStyle=orthogonalEdgeStyle;rounded=0;orthogonalLoop=1;jettySize=auto;html=1;" edge="1" parent="1" source="2s6DsIRSyvXSMa6hS0V3-8" target="2s6DsIRSyvXSMa6hS0V3-9">
          <mxGeometry relative="1" as="geometry" />
        </mxCell>
        <mxCell id="2s6DsIRSyvXSMa6hS0V3-8" value="&lt;b&gt;&lt;font style=&quot;font-size: 13px;&quot;&gt;Operate&lt;/font&gt;&lt;/b&gt;" style="ellipse;whiteSpace=wrap;html=1;" vertex="1" parent="1">
          <mxGeometry x="290" y="690" width="120" height="80" as="geometry" />
        </mxCell>
        <mxCell id="2s6DsIRSyvXSMa6hS0V3-9" value="&lt;b&gt;&lt;font style=&quot;font-size: 14px;&quot;&gt;Maintain&lt;/font&gt;&lt;/b&gt;" style="ellipse;whiteSpace=wrap;html=1;" vertex="1" parent="1">
          <mxGeometry x="290" y="810" width="120" height="80" as="geometry" />
        </mxCell>
      </root>
    </mxGraphModel>
  </diagram>
</mxfile>
